<?xml version="1.0" encoding="UTF-8"?>
<svg xmlns="http://www.w3.org/2000/svg" viewBox="0 0 100 100" width="100" height="100">
  <defs>
    <linearGradient id="purpleGradient" x1="0%" y1="0%" x2="100%" y2="100%">
      <stop offset="0%" style="stop-color:#7c3aed;stop-opacity:1" />
      <stop offset="50%" style="stop-color:#a855f7;stop-opacity:1" />
      <stop offset="100%" style="stop-color:#6366f1;stop-opacity:1" />
    </linearGradient>
  </defs>
  
  <!-- Android Robot Body -->
  <g fill="url(#purpleGradient)">
    <!-- Head -->
    <path d="M35 25 C35 20, 40 15, 50 15 C60 15, 65 20, 65 25 L65 40 L35 40 Z"/>
    
    <!-- Antennae -->
    <circle cx="42" cy="18" r="1.5"/>
    <circle cx="58" cy="18" r="1.5"/>
    <line x1="42" y1="16" x2="38" y2="10" stroke="url(#purpleGradient)" stroke-width="2" stroke-linecap="round"/>
    <line x1="58" y1="16" x2="62" y2="10" stroke="url(#purpleGradient)" stroke-width="2" stroke-linecap="round"/>
    
    <!-- Eyes -->
    <circle cx="43" cy="25" r="2" fill="white"/>
    <circle cx="57" cy="25" r="2" fill="white"/>
    
    <!-- Body -->
    <rect x="35" y="40" width="30" height="25" rx="5"/>
    
    <!-- Arms -->
    <rect x="28" y="42" width="6" height="18" rx="3"/>
    <rect x="66" y="42" width="6" height="18" rx="3"/>
    
    <!-- Legs -->
    <rect x="40" y="66" width="6" height="15" rx="3"/>
    <rect x="54" y="66" width="6" height="15" rx="3"/>
  </g>
</svg>