<svg xmlns="http://www.w3.org/2000/svg" version="1.1" xmlns:xlink="http://www.w3.org/1999/xlink" width="1000" height="1000"><style>
    #light-icon {
      display: inline;
    }
    #dark-icon {
      display: none;
    }

    @media (prefers-color-scheme: dark) {
      #light-icon {
        display: none;
      }
      #dark-icon {
        display: inline;
      }
    }
  </style><g id="light-icon"><svg xmlns="http://www.w3.org/2000/svg" version="1.1" xmlns:xlink="http://www.w3.org/1999/xlink" width="1000" height="1000"><g><g transform="matrix(2.350452462098954,0,0,2.350452462098954,107.23939358326479,0)"><svg xmlns="http://www.w3.org/2000/svg" version="1.1" xmlns:xlink="http://www.w3.org/1999/xlink" width="334.2" height="425.45"><svg id="Layer_2" data-name="Layer 2" xmlns="http://www.w3.org/2000/svg" viewBox="0 0 334.2 425.45">
  <defs>
    <style>
      .cls-1 {
        fill: #270f5e;
      }

      .cls-2 {
        fill: #fff;
      }
    </style>
  </defs>
  <g id="Layer_1-2" data-name="Layer 1">
    <g>
      <path class="cls-2" d="M260.61,252.32c-11.84,29.39-50.34,46.19-94.07,44.75-45.05,2.35-84.71-14.82-96.76-44.75-19.57-48.61,33.94-130.39,95.42-130.39,61.52-.01,114.96,81.89,95.41,130.39Z"></path>
      <g>
        <path class="cls-2" d="M260.61,252.32c-11.84,29.39-50.34,46.19-94.07,44.75-45.05,2.35-84.71-14.82-96.76-44.75-19.57-48.61,33.94-130.39,95.42-130.39,61.52-.01,114.96,81.89,95.41,130.39Z"></path>
        <path class="cls-2" d="M260.61,252.32c-11.84,29.39-50.34,46.19-94.07,44.75-45.05,2.35-84.71-14.82-96.76-44.75-19.57-48.61,33.94-130.39,95.42-130.39,61.52-.01,114.96,81.89,95.41,130.39Z"></path>
        <ellipse class="cls-1" cx="125.66" cy="206.65" rx="19.03" ry="30.95"></ellipse>
        <ellipse class="cls-1" cx="199.24" cy="206.65" rx="19.03" ry="30.95"></ellipse>
        <circle class="cls-2" cx="121.86" cy="206.65" r="7.02"></circle>
        <circle class="cls-2" cx="199.24" cy="206.65" r="6.17"></circle>
      </g>
      <path class="cls-1" d="M305.32,161.65c-26.81-44.6-74.96-76.98-125.91-82.98v-28.1c7.83-4.79,13.06-13.43,13.06-23.29,0-15.06-12.21-27.28-27.27-27.28s-27.28,12.22-27.28,27.28c0,9.86,5.23,18.5,13.06,23.29v27.56c-5.01.41-10.02,1.1-15.01,2.08-50.16,9.86-92.55,47.25-114.78,93.28C-1.03,219.52-4.47,273.12,4.82,323.38c7.69,41.59,57.77,137.15,111.69,88.68,18.48-16.62,27.35-47.3,58.16-45.75,28.96,1.45,37.26,35.83,60.02,48.2,17.46,9.49,40.21,3.91,55.33-8.99,15.12-12.89,23.89-31.68,30.26-50.5,21.4-63.2,19.41-136.18-14.96-193.37ZM260.61,252.32c-11.84,29.39-50.34,46.19-94.07,44.75-45.05,2.35-84.71-14.82-96.76-44.75-19.57-48.61,33.94-130.39,95.42-130.39,61.52-.01,114.96,81.89,95.41,130.39Z"></path>
    </g>
  </g>
</svg></svg></g></g></svg></g><g id="dark-icon"><svg xmlns="http://www.w3.org/2000/svg" version="1.1" xmlns:xlink="http://www.w3.org/1999/xlink" width="1000" height="1000"><g clip-path="url(#SvgjsClipPath1185)"><rect width="1000" height="1000" fill="#ffffff"></rect><g transform="matrix(1.6453167234692678,0,0,1.6453167234692678,225.06757550828533,149.99999999999997)"><svg xmlns="http://www.w3.org/2000/svg" version="1.1" xmlns:xlink="http://www.w3.org/1999/xlink" width="334.2" height="425.45"><svg id="Layer_2" data-name="Layer 2" xmlns="http://www.w3.org/2000/svg" viewBox="0 0 334.2 425.45">
  <defs>
    <style>
      .cls-1 {
        fill: #270f5e;
      }

      .cls-2 {
        fill: #fff;
      }
    </style>
  <clipPath id="SvgjsClipPath1185"><rect width="1000" height="1000" x="0" y="0" rx="350" ry="350"></rect></clipPath></defs>
  <g id="Layer_1-2" data-name="Layer 1">
    <g>
      <path class="cls-2" d="M260.61,252.32c-11.84,29.39-50.34,46.19-94.07,44.75-45.05,2.35-84.71-14.82-96.76-44.75-19.57-48.61,33.94-130.39,95.42-130.39,61.52-.01,114.96,81.89,95.41,130.39Z"></path>
      <g>
        <path class="cls-2" d="M260.61,252.32c-11.84,29.39-50.34,46.19-94.07,44.75-45.05,2.35-84.71-14.82-96.76-44.75-19.57-48.61,33.94-130.39,95.42-130.39,61.52-.01,114.96,81.89,95.41,130.39Z"></path>
        <path class="cls-2" d="M260.61,252.32c-11.84,29.39-50.34,46.19-94.07,44.75-45.05,2.35-84.71-14.82-96.76-44.75-19.57-48.61,33.94-130.39,95.42-130.39,61.52-.01,114.96,81.89,95.41,130.39Z"></path>
        <ellipse class="cls-1" cx="125.66" cy="206.65" rx="19.03" ry="30.95"></ellipse>
        <ellipse class="cls-1" cx="199.24" cy="206.65" rx="19.03" ry="30.95"></ellipse>
        <circle class="cls-2" cx="121.86" cy="206.65" r="7.02"></circle>
        <circle class="cls-2" cx="199.24" cy="206.65" r="6.17"></circle>
      </g>
      <path class="cls-1" d="M305.32,161.65c-26.81-44.6-74.96-76.98-125.91-82.98v-28.1c7.83-4.79,13.06-13.43,13.06-23.29,0-15.06-12.21-27.28-27.27-27.28s-27.28,12.22-27.28,27.28c0,9.86,5.23,18.5,13.06,23.29v27.56c-5.01.41-10.02,1.1-15.01,2.08-50.16,9.86-92.55,47.25-114.78,93.28C-1.03,219.52-4.47,273.12,4.82,323.38c7.69,41.59,57.77,137.15,111.69,88.68,18.48-16.62,27.35-47.3,58.16-45.75,28.96,1.45,37.26,35.83,60.02,48.2,17.46,9.49,40.21,3.91,55.33-8.99,15.12-12.89,23.89-31.68,30.26-50.5,21.4-63.2,19.41-136.18-14.96-193.37ZM260.61,252.32c-11.84,29.39-50.34,46.19-94.07,44.75-45.05,2.35-84.71-14.82-96.76-44.75-19.57-48.61,33.94-130.39,95.42-130.39,61.52-.01,114.96,81.89,95.41,130.39Z"></path>
    </g>
  </g>
</svg></svg></g></g></svg></g></svg>