<?xml version="1.0" encoding="UTF-8"?>
<svg id="Layer_2" data-name="Layer 2" xmlns="http://www.w3.org/2000/svg" viewBox="0 0 1523.49 607.45">
  <defs>
    <style>
      .cls-1 {
        fill: #6e00aa;
      }
    </style>
  </defs>
  <g id="Layer_1-2" data-name="Layer 1">
    <g>
      <path class="cls-1" d="M44.24,2.71l113.18.08v-.08c130.18-16.75,203.75,146.18,119.79,241.39,77.88,83.38,19.32,246.66-98.77,244.24,0,0-134.2,0-134.2,0-23.56-.12-42.63-20.68-42.73-46.08,0,0,0-393.48,0-393.48C1.58,23.36,20.67,2.78,44.24,2.71ZM169.41,396.2c70.64,10.1,79.79-105.3,9.04-106.64-32.29,0-61.89,2.77-91.48-9.55v116.18h82.44ZM86.96,94.84c-.59,39.79-7.23,100.32,47.56,102.57,0,0,45.78,0,45.78,0,67.25-2.04,66-117.03-22.88-102.55v-.1l-70.45.08Z"/>
      <path class="cls-1" d="M498.83,124.23c128.73-13.45,218.58,221.35,107.92,226.96,0,0-172.54-1.01-172.54-1.01,13.27,34.22,46.42,49.25,80.02,45.78,61.43,1.39,64.87,117.14-43.19,89.45-184.72-32.22-164.27-364.35,27.74-361.16l.04-.03ZM562.26,259.41c-23.48-56.94-104.86-56.12-127.39,1.14l127.39-1.14Z"/>
      <path class="cls-1" d="M787.41,124.23h160.05c56.31,0,56.31,92.14,0,92.14h-160.06c-30.1.76-30.18,50.06,0,50.82,93.21-1.11,199.07-14.46,202.59,115.42-10.03,114.97-105,108.31-191.18,105.55v-.13l-77.7.13c-56.31,0-56.31-92.15,0-92.15l77.7.14v-.14s88.92,0,88.92,0c9.39,0,17.01-8.21,17.01-18.34s-7.61-18.34-17.01-18.34h-100.32c-144.93-1.92-144.94-233.18,0-235.1Z"/>
      <path class="cls-1" d="M1066.53,7.24c57.33,1.39,40.49,79.35,42.74,116.53,1.04-.24,360.23,1.69,361.13.97.93-.2,2.21-.46,3.15-.57,5.32-.66,11.18-.39,16.34,1.08,3.02.85,6.04,2.09,8.78,3.62,3.36,1.86,6.52,4.25,9.27,6.93,1.08-.39,11.67,20.61,12.41,21.49,0,0,1.63,12.58,1.63,12.58v266.28c.21,112.18-94.56,181.84-195.62,168.05-56.31,0-56.31-92.14,0-92.14,36.14,0,65.57,5.24,91.06-24.36l-52.35-1.22v1.22c-105.55-.18-165.84-104.68-156.36-207.85,2.05-65.69,98.47-69.44,86.65,39.8.12,41.59,31.14,75.4,69.71,75.95v1.22l71.15-1.22v-178.58l-326.98-1.12c1.79,63.39-19.64,181.53,75.14,179.63,15.82.08,30.32,9.55,37.7,24.64s6.46,33.34-2.41,47.47c-8.87,14.13-24.24,21.83-39.98,20.04-88.39,0-155.86-75.93-155.86-173.58,0,0,0-260.8,0-260.8.07-25.4,19.14-45.98,42.69-46.07Z"/>
    </g>
  </g>
</svg>
